# Blender 3.6.1
# www.blender.org
mtllib rouletteWheel.mtl
o Cylinder
v -0.311337 0.408251 -1.217316
v -0.311337 0.003866 -1.334656
v -0.073850 0.408251 -1.193925
v -0.050958 0.003866 -1.309011
v 0.154510 0.408251 -1.124653
v 0.199414 0.003866 -1.233061
v 0.364968 0.408251 -1.012161
v 0.430158 0.003866 -1.109726
v 0.549435 0.408251 -0.860772
v 0.632408 0.003866 -0.943744
v 0.700824 0.408251 -0.676304
v 0.798389 0.003866 -0.741495
v 0.813316 0.408251 -0.465847
v 0.921724 0.003866 -0.510751
v 0.882589 0.408251 -0.237486
v 0.997674 0.003866 -0.260378
v 0.905979 0.408251 0.000000
v 1.023319 0.003866 0.000000
v 0.882589 0.408251 0.237486
v 0.997674 0.003866 0.260378
v 0.813316 0.408251 0.465847
v 0.921724 0.003866 0.510751
v 0.700824 0.408251 0.676304
v 0.798389 0.003866 0.741495
v 0.549435 0.408251 0.860772
v 0.632408 0.003866 0.943744
v 0.364968 0.408251 1.012161
v 0.430158 0.003866 1.109726
v 0.154510 0.408251 1.124653
v 0.199414 0.003866 1.233061
v -0.073850 0.408251 1.193925
v -0.050958 0.003866 1.309011
v -0.311337 0.408251 1.217316
v -0.311337 0.003866 1.334656
v -0.548823 0.408251 1.193925
v -0.571715 0.003866 1.309011
v -0.777183 0.408251 1.124653
v -0.822087 0.003866 1.233061
v -0.987641 0.408251 1.012161
v -1.052832 0.003866 1.109726
v -1.172109 0.408251 0.860772
v -1.255081 0.003866 0.943744
v -1.323498 0.408251 0.676304
v -1.421062 0.003866 0.741495
v -1.435990 0.408251 0.465847
v -1.544398 0.003866 0.510751
v -1.505262 0.408251 0.237486
v -1.620347 0.003866 0.260378
v -1.528652 0.408251 0.000000
v -1.645992 0.003866 0.000000
v -1.505262 0.408251 -0.237486
v -1.620347 0.003866 -0.260378
v -1.435990 0.408251 -0.465847
v -1.544398 0.003866 -0.510751
v -1.323498 0.408251 -0.676304
v -1.421062 0.003866 -0.741495
v -1.172109 0.408251 -0.860772
v -1.255081 0.003866 -0.943744
v -0.987641 0.408251 -1.012161
v -1.052832 0.003866 -1.109726
v -0.777183 0.408251 -1.124653
v -0.822087 0.003866 -1.233061
v -0.548823 0.408251 -1.193925
v -0.571715 0.003866 -1.309011
v -0.311337 0.408251 -1.334656
v -0.050958 0.408251 -1.309011
v 0.199414 0.408251 -1.233061
v 0.430158 0.408251 -1.109726
v 0.632408 0.408251 -0.943744
v 0.798389 0.408251 -0.741495
v 0.921724 0.408251 -0.510751
v 0.997674 0.408251 -0.260378
v 1.023319 0.408251 0.000000
v 0.997674 0.408251 0.260378
v 0.921724 0.408251 0.510751
v 0.798389 0.408251 0.741495
v 0.632408 0.408251 0.943744
v 0.430158 0.408251 1.109726
v 0.199414 0.408251 1.233061
v -0.050958 0.408251 1.309011
v -0.311337 0.408251 1.334656
v -0.571715 0.408251 1.309011
v -0.822087 0.408251 1.233061
v -1.052832 0.408251 1.109726
v -1.255081 0.408251 0.943744
v -1.421062 0.408251 0.741495
v -1.544398 0.408251 0.510751
v -1.620347 0.408251 0.260378
v -1.645992 0.408251 0.000000
v -1.620347 0.408251 -0.260378
v -1.544398 0.408251 -0.510751
v -1.421062 0.408251 -0.741495
v -1.255081 0.408251 -0.943744
v -1.052832 0.408251 -1.109726
v -0.822087 0.408251 -1.233061
v -0.571715 0.408251 -1.309011
v -0.311337 0.401264 -0.166618
v -0.278831 0.401264 -0.163416
v -0.247575 0.401264 -0.153935
v -0.218769 0.401264 -0.138538
v -0.193520 0.401264 -0.117817
v -0.172799 0.401264 -0.092568
v -0.157402 0.401264 -0.063762
v -0.147920 0.401264 -0.032506
v -0.144719 0.401264 0.000000
v -0.147920 0.401264 0.032506
v -0.157402 0.401264 0.063762
v -0.172799 0.401264 0.092568
v -0.193520 0.401264 0.117817
v -0.218769 0.401264 0.138538
v -0.247575 0.401264 0.153935
v -0.278831 0.401264 0.163416
v -0.311337 0.401264 0.166618
v -0.343842 0.401264 0.163416
v -0.375099 0.401264 0.153935
v -0.403905 0.401264 0.138538
v -0.429153 0.401264 0.117817
v -0.449874 0.401264 0.092568
v -0.465272 0.401264 0.063762
v -0.474753 0.401264 0.032506
v -0.477955 0.401264 0.000000
v -0.474753 0.401264 -0.032506
v -0.465272 0.401264 -0.063762
v -0.449874 0.401264 -0.092568
v -0.429153 0.401264 -0.117817
v -0.403905 0.401264 -0.138538
v -0.375099 0.401264 -0.153935
v -0.343842 0.401264 -0.163416
v -0.311337 0.267222 -1.217316
v -0.073850 0.267222 -1.193925
v 0.154510 0.267222 -1.124653
v 0.364968 0.267222 -1.012161
v 0.549435 0.267222 -0.860772
v 0.700824 0.267222 -0.676304
v 0.813316 0.267222 -0.465847
v 0.882589 0.267222 -0.237486
v 0.905979 0.267222 0.000000
v 0.882589 0.267222 0.237486
v 0.813316 0.267222 0.465847
v 0.700824 0.267222 0.676304
v 0.549435 0.267222 0.860772
v 0.364968 0.267222 1.012161
v 0.154510 0.267222 1.124653
v -0.073850 0.267222 1.193925
v -0.311337 0.267222 1.217316
v -0.548823 0.267222 1.193925
v -0.777183 0.267222 1.124653
v -0.987641 0.267222 1.012161
v -1.172109 0.267222 0.860772
v -1.323498 0.267222 0.676304
v -1.435990 0.267222 0.465847
v -1.505262 0.267222 0.237486
v -1.528652 0.267222 0.000000
v -1.505262 0.267222 -0.237486
v -1.435990 0.267222 -0.465847
v -1.323498 0.267222 -0.676304
v -1.172109 0.267222 -0.860772
v -0.987641 0.267222 -1.012161
v -0.777183 0.267222 -1.124653
v -0.548823 0.267222 -1.193925
v -0.311337 0.183128 -1.052252
v -0.106053 0.183128 -1.032033
v 0.091343 0.183128 -0.972154
v 0.273263 0.183128 -0.874915
v 0.432718 0.183128 -0.744054
v 0.563579 0.183128 -0.584600
v 0.660817 0.183128 -0.402679
v 0.720696 0.183128 -0.205284
v 0.740915 0.183128 0.000000
v 0.720696 0.183128 0.205284
v 0.660817 0.183128 0.402679
v 0.563579 0.183128 0.584600
v 0.432718 0.183128 0.744054
v 0.273263 0.183128 0.874915
v 0.091343 0.183128 0.972154
v -0.106053 0.183128 1.032033
v -0.311337 0.183128 1.052252
v -0.516621 0.183128 1.032033
v -0.714016 0.183128 0.972154
v -0.895936 0.183128 0.874915
v -1.055391 0.183128 0.744054
v -1.186252 0.183128 0.584600
v -1.283490 0.183128 0.402679
v -1.343370 0.183128 0.205284
v -1.363588 0.183128 0.000000
v -1.343370 0.183128 -0.205284
v -1.283490 0.183128 -0.402679
v -1.186252 0.183128 -0.584600
v -1.055391 0.183128 -0.744054
v -0.895936 0.183128 -0.874915
v -0.714016 0.183128 -0.972154
v -0.516621 0.183128 -1.032033
v -0.311337 0.083336 -0.914587
v -0.132910 0.083336 -0.897013
v 0.038661 0.083336 -0.844968
v 0.196781 0.083336 -0.760451
v 0.335374 0.083336 -0.646711
v 0.449115 0.083336 -0.508117
v 0.533632 0.083336 -0.349997
v 0.585677 0.083336 -0.178427
v 0.603251 0.083336 0.000000
v 0.585677 0.083336 0.178427
v 0.533632 0.083336 0.349997
v 0.449115 0.083336 0.508117
v 0.335374 0.083336 0.646711
v 0.196781 0.083336 0.760451
v 0.038661 0.083336 0.844968
v -0.132910 0.083336 0.897013
v -0.311337 0.083336 0.914587
v -0.489764 0.083336 0.897013
v -0.661334 0.083336 0.844968
v -0.819454 0.083336 0.760451
v -0.958047 0.083336 0.646711
v -1.071788 0.083336 0.508117
v -1.156305 0.083336 0.349997
v -1.208350 0.083336 0.178427
v -1.225924 0.083336 0.000000
v -1.208350 0.083336 -0.178427
v -1.156305 0.083336 -0.349997
v -1.071788 0.083336 -0.508117
v -0.958047 0.083336 -0.646711
v -0.819454 0.083336 -0.760451
v -0.661334 0.083336 -0.844968
v -0.489764 0.083336 -0.897013
v -0.311337 0.653115 -0.068423
v -0.297988 0.653115 -0.067109
v -0.285152 0.653115 -0.063215
v -0.273323 0.653115 -0.056892
v -0.262954 0.653115 -0.048383
v -0.254445 0.653115 -0.038014
v -0.248122 0.653115 -0.026184
v -0.244228 0.653115 -0.013349
v -0.242913 0.653115 0.000000
v -0.244228 0.653115 0.013349
v -0.248122 0.653115 0.026184
v -0.254445 0.653115 0.038014
v -0.262954 0.653115 0.048383
v -0.273323 0.653115 0.056892
v -0.285152 0.653115 0.063215
v -0.297988 0.653115 0.067109
v -0.311337 0.653115 0.068423
v -0.324685 0.653115 0.067109
v -0.337521 0.653115 0.063215
v -0.349351 0.653115 0.056892
v -0.359719 0.653115 0.048383
v -0.368229 0.653115 0.038014
v -0.374552 0.653115 0.026184
v -0.378445 0.653115 0.013349
v -0.379760 0.653115 0.000000
v -0.378445 0.653115 -0.013349
v -0.374552 0.653115 -0.026184
v -0.368229 0.653115 -0.038014
v -0.359719 0.653115 -0.048383
v -0.349351 0.653115 -0.056892
v -0.337521 0.653115 -0.063215
v -0.324685 0.653115 -0.067109
v -0.272799 0.396811 -0.193740
v -0.311337 0.396811 -0.197536
v -0.235743 0.396811 -0.182499
v -0.201592 0.396811 -0.164245
v -0.171658 0.396811 -0.139679
v -0.147092 0.396811 -0.109745
v -0.128837 0.396811 -0.075594
v -0.117597 0.396811 -0.038537
v -0.113801 0.396811 0.000000
v -0.117597 0.396811 0.038537
v -0.128837 0.396811 0.075594
v -0.147092 0.396811 0.109745
v -0.171658 0.396811 0.139679
v -0.201592 0.396811 0.164245
v -0.235743 0.396811 0.182499
v -0.272799 0.396811 0.193740
v -0.311337 0.396811 0.197536
v -0.349874 0.396811 0.193740
v -0.386930 0.396811 0.182499
v -0.421081 0.396811 0.164245
v -0.451015 0.396811 0.139679
v -0.475581 0.396811 0.109745
v -0.493836 0.396811 0.075594
v -0.505077 0.396811 0.038537
v -0.508872 0.396811 0.000000
v -0.505077 0.396811 -0.038537
v -0.493836 0.396811 -0.075594
v -0.475581 0.396811 -0.109745
v -0.451015 0.396811 -0.139679
v -0.421081 0.396811 -0.164245
v -0.386930 0.396811 -0.182499
v -0.349874 0.396811 -0.193740
v -0.311337 0.491936 -0.166618
v -0.278831 0.491936 -0.163416
v -0.247575 0.491936 -0.153935
v -0.218769 0.491936 -0.138538
v -0.193520 0.491936 -0.117817
v -0.172799 0.491936 -0.092568
v -0.157402 0.491936 -0.063762
v -0.147920 0.491936 -0.032506
v -0.144719 0.491936 0.000000
v -0.147920 0.491936 0.032506
v -0.157402 0.491936 0.063762
v -0.172799 0.491936 0.092568
v -0.193520 0.491936 0.117817
v -0.218769 0.491936 0.138538
v -0.247575 0.491936 0.153935
v -0.278831 0.491936 0.163416
v -0.311337 0.491936 0.166618
v -0.343842 0.491936 0.163416
v -0.375099 0.491936 0.153935
v -0.403905 0.491936 0.138538
v -0.429153 0.491936 0.117817
v -0.449874 0.491936 0.092568
v -0.465272 0.491936 0.063762
v -0.474753 0.491936 0.032506
v -0.477955 0.491936 0.000000
v -0.474753 0.491936 -0.032506
v -0.465272 0.491936 -0.063762
v -0.449874 0.491936 -0.092568
v -0.429153 0.491936 -0.117817
v -0.403905 0.491936 -0.138538
v -0.375099 0.491936 -0.153935
v -0.343842 0.491936 -0.163416
v -0.311337 0.705650 -0.126038
v -0.286748 0.705650 -0.123616
v -0.263104 0.705650 -0.116444
v -0.241314 0.705650 -0.104797
v -0.222214 0.705650 -0.089122
v -0.206540 0.705650 -0.070023
v -0.194893 0.705650 -0.048233
v -0.187720 0.705650 -0.024589
v -0.185298 0.705650 0.000000
v -0.187720 0.705650 0.024589
v -0.194893 0.705650 0.048233
v -0.206540 0.705650 0.070023
v -0.222214 0.705650 0.089122
v -0.241314 0.705650 0.104797
v -0.263104 0.705650 0.116444
v -0.286748 0.705650 0.123616
v -0.311337 0.705650 0.126038
v -0.335925 0.705650 0.123616
v -0.359569 0.705650 0.116444
v -0.381360 0.705650 0.104797
v -0.400459 0.705650 0.089122
v -0.416134 0.705650 0.070023
v -0.427781 0.705650 0.048233
v -0.434953 0.705650 0.024589
v -0.437375 0.705650 0.000000
v -0.434953 0.705650 -0.024589
v -0.427781 0.705650 -0.048233
v -0.416134 0.705650 -0.070023
v -0.400459 0.705650 -0.089122
v -0.381360 0.705650 -0.104797
v -0.359569 0.705650 -0.116444
v -0.335925 0.705650 -0.123616
v -0.311337 0.843526 -0.023535
v -0.306745 0.843526 -0.023083
v -0.302330 0.843526 -0.021744
v -0.298261 0.843526 -0.019569
v -0.294695 0.843526 -0.016642
v -0.291768 0.843526 -0.013075
v -0.289593 0.843526 -0.009007
v -0.288254 0.843526 -0.004591
v -0.287801 0.843526 -0.000000
v -0.288254 0.843526 0.004591
v -0.289593 0.843526 0.009006
v -0.291768 0.843526 0.013075
v -0.294695 0.843526 0.016642
v -0.298261 0.843526 0.019569
v -0.302330 0.843526 0.021744
v -0.306745 0.843526 0.023083
v -0.311337 0.843526 0.023535
v -0.315928 0.843526 0.023083
v -0.320343 0.843526 0.021744
v -0.324412 0.843526 0.019569
v -0.327978 0.843526 0.016642
v -0.330905 0.843526 0.013075
v -0.333080 0.843526 0.009006
v -0.334419 0.843526 0.004591
v -0.334872 0.843526 -0.000000
v -0.334419 0.843526 -0.004591
v -0.333080 0.843526 -0.009007
v -0.330905 0.843526 -0.013075
v -0.327978 0.843526 -0.016642
v -0.324412 0.843526 -0.019569
v -0.320343 0.843526 -0.021744
v -0.315928 0.843526 -0.023083
vn -0.0000 0.6857 -0.7279
vn 0.1420 0.6857 -0.7139
vn 0.1420 -0.6857 -0.7139
vn -0.0000 -0.6857 -0.7279
vn 0.2786 0.6857 -0.6725
vn 0.2786 -0.6857 -0.6725
vn 0.4044 0.6857 -0.6052
vn 0.4044 -0.6857 -0.6052
vn 0.5147 0.6857 -0.5147
vn 0.5147 -0.6857 -0.5147
vn 0.6052 0.6857 -0.4044
vn 0.6052 -0.6857 -0.4044
vn 0.6725 0.6857 -0.2786
vn 0.6725 -0.6857 -0.2786
vn 0.7139 0.6857 -0.1420
vn 0.7139 -0.6857 -0.1420
vn 0.7279 0.6857 -0.0000
vn 0.7279 -0.6857 -0.0000
vn 0.7139 0.6857 0.1420
vn 0.7139 -0.6857 0.1420
vn 0.6725 0.6857 0.2786
vn 0.6725 -0.6857 0.2786
vn 0.6052 0.6857 0.4044
vn 0.6052 -0.6857 0.4044
vn 0.5147 0.6857 0.5147
vn 0.5147 -0.6857 0.5147
vn 0.4044 0.6857 0.6052
vn 0.4044 -0.6857 0.6052
vn 0.2786 0.6857 0.6725
vn 0.2786 -0.6857 0.6725
vn 0.1420 0.6857 0.7139
vn 0.1420 -0.6857 0.7139
vn -0.0000 0.6857 0.7279
vn -0.0000 -0.6857 0.7279
vn -0.1420 0.6857 0.7139
vn -0.1420 -0.6857 0.7139
vn -0.2786 0.6857 0.6725
vn -0.2786 -0.6857 0.6725
vn -0.4044 0.6857 0.6052
vn -0.4044 -0.6857 0.6052
vn -0.5147 0.6857 0.5147
vn -0.5147 -0.6857 0.5147
vn -0.6052 0.6857 0.4044
vn -0.6052 -0.6857 0.4044
vn -0.6725 0.6857 0.2786
vn -0.6725 -0.6857 0.2786
vn -0.7139 0.6857 0.1420
vn -0.7139 -0.6857 0.1420
vn -0.7279 0.6857 -0.0000
vn -0.7279 -0.6857 -0.0000
vn -0.7139 0.6857 -0.1420
vn -0.7139 -0.6857 -0.1420
vn -0.6725 0.6857 -0.2786
vn -0.6725 -0.6857 -0.2786
vn -0.6052 0.6857 -0.4044
vn -0.6052 -0.6857 -0.4044
vn -0.5147 0.6857 -0.5147
vn -0.5147 -0.6857 -0.5147
vn -0.4044 0.6857 -0.6052
vn -0.4044 -0.6857 -0.6052
vn -0.2786 0.6857 -0.6725
vn -0.2786 -0.6857 -0.6725
vn -0.0000 -1.0000 -0.0000
vn -0.1420 0.6857 -0.7139
vn -0.1420 -0.6857 -0.7139
vn 0.4834 0.7298 -0.4834
vn 0.6089 0.5085 -0.6089
vn 0.7160 0.5085 -0.4784
vn 0.5684 0.7298 -0.3798
vn -0.1334 0.7298 0.6705
vn -0.0000 0.7298 0.6836
vn -0.2616 0.7298 0.6316
vn -0.3798 0.7298 0.5684
vn -0.4834 0.7298 0.4834
vn -0.5684 0.7298 0.3798
vn -0.6316 0.7298 0.2616
vn -0.6705 0.7298 0.1334
vn -0.6836 0.7298 -0.0000
vn -0.6705 0.7298 -0.1334
vn -0.6316 0.7298 -0.2616
vn -0.5684 0.7298 -0.3798
vn -0.4834 0.7298 -0.4834
vn -0.3798 0.7298 -0.5684
vn -0.2616 0.7298 -0.6316
vn -0.1334 0.7298 -0.6705
vn -0.0000 0.7298 -0.6836
vn 0.1334 0.7298 -0.6705
vn 0.2616 0.7298 -0.6316
vn 0.3798 0.7298 -0.5684
vn 0.6316 0.7298 -0.2616
vn 0.6705 0.7298 -0.1334
vn 0.6836 0.7298 -0.0000
vn 0.6705 0.7298 0.1334
vn 0.6316 0.7298 0.2616
vn 0.5684 0.7298 0.3798
vn 0.4834 0.7298 0.4834
vn 0.3798 0.7298 0.5684
vn 0.2616 0.7298 0.6316
vn 0.1334 0.7298 0.6705
vn -0.2821 0.6757 0.6811
vn -0.3689 0.2659 0.8906
vn -0.5356 0.2659 0.8015
vn -0.4096 0.6757 0.6129
vn -0.8445 0.5085 0.1680
vn -0.8611 0.5085 -0.0000
vn 0.7955 0.5085 -0.3295
vn -0.8445 0.5085 -0.1680
vn 0.8445 0.5085 -0.1680
vn -0.7955 0.5085 -0.3295
vn 0.8611 0.5085 -0.0000
vn -0.7160 0.5085 -0.4784
vn 0.8445 0.5085 0.1680
vn -0.6089 0.5085 -0.6089
vn 0.7955 0.5085 0.3295
vn -0.4784 0.5085 -0.7160
vn 0.7160 0.5085 0.4784
vn -0.3295 0.5085 -0.7955
vn -0.0000 0.5085 0.8611
vn -0.1680 0.5085 0.8445
vn 0.6089 0.5085 0.6089
vn -0.1680 0.5085 -0.8445
vn -0.3295 0.5085 0.7955
vn 0.4784 0.5085 0.7160
vn -0.0000 0.5085 -0.8611
vn -0.4784 0.5085 0.7160
vn 0.3295 0.5085 0.7955
vn 0.1680 0.5085 -0.8445
vn -0.6089 0.5085 0.6089
vn 0.1680 0.5085 0.8445
vn 0.3295 0.5085 -0.7955
vn -0.7160 0.5085 0.4784
vn 0.4784 0.5085 -0.7160
vn -0.7955 0.5085 0.3295
vn -0.1011 0.8551 0.5085
vn -0.0000 0.8551 0.5185
vn -0.1984 0.8551 0.4790
vn -0.2880 0.8551 0.4311
vn -0.3666 0.8551 0.3666
vn -0.4311 0.8551 0.2880
vn -0.4790 0.8551 0.1984
vn -0.5085 0.8551 0.1011
vn -0.5185 0.8551 -0.0000
vn -0.5085 0.8551 -0.1011
vn -0.4790 0.8551 -0.1984
vn -0.4311 0.8551 -0.2880
vn -0.3666 0.8551 -0.3666
vn -0.2880 0.8551 -0.4311
vn -0.1984 0.8551 -0.4790
vn -0.1011 0.8551 -0.5085
vn -0.0000 0.8551 -0.5185
vn 0.1011 0.8551 -0.5085
vn 0.1984 0.8551 -0.4790
vn 0.2880 0.8551 -0.4311
vn 0.3666 0.8551 -0.3666
vn 0.4311 0.8551 -0.2880
vn 0.4790 0.8551 -0.1984
vn 0.5085 0.8551 -0.1011
vn 0.5185 0.8551 -0.0000
vn 0.5085 0.8551 0.1011
vn 0.4790 0.8551 0.1984
vn 0.4311 0.8551 0.2880
vn 0.3666 0.8551 0.3666
vn 0.2880 0.8551 0.4311
vn 0.1984 0.8551 0.4790
vn 0.1011 0.8551 0.5085
vn -0.0577 0.8083 0.5859
vn -0.1709 0.8083 0.5634
vn -0.2775 0.8083 0.5192
vn -0.3735 0.8083 0.4551
vn -0.4551 0.8083 0.3735
vn -0.5192 0.8083 0.2775
vn -0.5634 0.8083 0.1709
vn -0.5859 0.8083 0.0577
vn -0.5859 0.8083 -0.0577
vn -0.5634 0.8083 -0.1709
vn -0.5192 0.8083 -0.2775
vn -0.4551 0.8083 -0.3735
vn -0.3735 0.8083 -0.4551
vn -0.2775 0.8083 -0.5192
vn -0.1709 0.8083 -0.5634
vn -0.0577 0.8083 -0.5859
vn 0.0577 0.8083 -0.5859
vn 0.1709 0.8083 -0.5634
vn 0.2775 0.8083 -0.5192
vn 0.3735 0.8083 -0.4551
vn 0.4551 0.8083 -0.3735
vn 0.5192 0.8083 -0.2775
vn 0.5634 0.8083 -0.1709
vn 0.5859 0.8083 -0.0577
vn 0.5859 0.8083 0.0577
vn 0.5634 0.8083 0.1709
vn 0.5192 0.8083 0.2775
vn 0.4551 0.8083 0.3735
vn 0.3735 0.8083 0.4551
vn 0.2775 0.8083 0.5192
vn 0.1709 0.8083 0.5634
vn 0.0577 0.8083 0.5859
vn 0.0550 0.9595 -0.2764
vn -0.0269 0.9905 0.1351
vn -0.0000 0.9905 0.1378
vn -0.0000 0.9595 -0.2818
vn 0.1078 0.9595 -0.2603
vn -0.0527 0.9905 0.1273
vn 0.1565 0.9595 -0.2343
vn -0.0766 0.9905 0.1146
vn 0.1992 0.9595 -0.1992
vn -0.0974 0.9905 0.0974
vn 0.2343 0.9595 -0.1565
vn -0.1146 0.9905 0.0766
vn 0.2603 0.9595 -0.1078
vn -0.1273 0.9905 0.0527
vn 0.2763 0.9595 -0.0550
vn -0.1351 0.9905 0.0269
vn 0.2818 0.9595 -0.0000
vn -0.1378 0.9905 -0.0000
vn 0.2763 0.9595 0.0550
vn -0.1351 0.9905 -0.0269
vn 0.2603 0.9595 0.1078
vn -0.1273 0.9905 -0.0527
vn 0.2343 0.9595 0.1565
vn -0.1146 0.9905 -0.0766
vn 0.1992 0.9595 0.1992
vn -0.0974 0.9905 -0.0974
vn 0.1565 0.9595 0.2343
vn -0.0766 0.9905 -0.1146
vn 0.1078 0.9595 0.2603
vn -0.0527 0.9905 -0.1273
vn 0.0550 0.9595 0.2764
vn -0.0269 0.9905 -0.1351
vn -0.0000 0.9595 0.2818
vn -0.0000 0.9905 -0.1378
vn -0.0550 0.9595 0.2764
vn 0.0269 0.9905 -0.1351
vn -0.1078 0.9595 0.2603
vn 0.0527 0.9905 -0.1273
vn -0.1565 0.9595 0.2343
vn 0.0766 0.9905 -0.1146
vn -0.1992 0.9595 0.1992
vn 0.0974 0.9905 -0.0974
vn -0.2343 0.9595 0.1565
vn 0.1146 0.9905 -0.0766
vn -0.2603 0.9595 0.1078
vn 0.1273 0.9905 -0.0527
vn -0.2764 0.9595 0.0550
vn 0.1351 0.9905 -0.0269
vn -0.2818 0.9595 -0.0000
vn 0.1378 0.9905 -0.0000
vn -0.2764 0.9595 -0.0550
vn 0.1351 0.9905 0.0269
vn -0.2603 0.9595 -0.1078
vn 0.1273 0.9905 0.0527
vn -0.2343 0.9595 -0.1565
vn 0.1146 0.9905 0.0766
vn -0.1992 0.9595 -0.1992
vn 0.0974 0.9905 0.0974
vn -0.1565 0.9595 -0.2343
vn 0.0766 0.9905 0.1146
vn -0.1078 0.9595 -0.2603
vn 0.0527 0.9905 0.1273
vn -0.0550 0.9595 -0.2764
vn 0.0269 0.9905 0.1351
vn -0.9700 -0.1476 0.1930
vn -0.9766 -0.0922 0.1943
vn -0.9957 -0.0922 -0.0000
vn -0.9891 -0.1476 -0.0000
vn 0.6129 0.6757 -0.4096
vn 0.8015 0.2659 -0.5356
vn 0.8906 0.2659 -0.3689
vn 0.6811 0.6757 -0.2821
vn -0.6817 0.2659 0.6817
vn -0.5213 0.6757 0.5213
vn 0.9455 0.2659 -0.1881
vn 0.7230 0.6757 -0.1438
vn -0.8015 0.2659 0.5356
vn -0.6129 0.6757 0.4096
vn 0.9640 0.2659 -0.0000
vn 0.7372 0.6757 -0.0000
vn -0.8906 0.2659 0.3689
vn -0.6811 0.6757 0.2821
vn 0.9455 0.2659 0.1881
vn 0.7230 0.6757 0.1438
vn -0.9455 0.2659 0.1881
vn -0.7230 0.6757 0.1438
vn 0.8906 0.2659 0.3689
vn 0.6811 0.6757 0.2821
vn -0.9640 0.2659 -0.0000
vn -0.7372 0.6757 -0.0000
vn 0.8015 0.2659 0.5356
vn 0.6129 0.6757 0.4096
vn -0.9455 0.2659 -0.1881
vn -0.7230 0.6757 -0.1438
vn 0.6817 0.2659 0.6817
vn 0.5213 0.6757 0.5213
vn -0.8906 0.2659 -0.3689
vn -0.6811 0.6757 -0.2821
vn 0.5356 0.2659 0.8015
vn 0.4096 0.6757 0.6129
vn -0.8015 0.2659 -0.5356
vn -0.6129 0.6757 -0.4096
vn 0.3689 0.2659 0.8906
vn 0.2821 0.6757 0.6811
vn -0.0000 0.6757 -0.7372
vn -0.0000 0.2659 -0.9640
vn 0.1881 0.2659 -0.9455
vn 0.1438 0.6757 -0.7230
vn -0.6817 0.2659 -0.6817
vn -0.5213 0.6757 -0.5213
vn 0.1881 0.2659 0.9455
vn 0.1438 0.6757 0.7230
vn 0.3689 0.2659 -0.8906
vn 0.2821 0.6757 -0.6811
vn -0.5356 0.2659 -0.8015
vn -0.4096 0.6757 -0.6129
vn -0.0000 0.2659 0.9640
vn -0.0000 0.6757 0.7372
vn 0.5356 0.2659 -0.8015
vn 0.4096 0.6757 -0.6129
vn -0.3689 0.2659 -0.8906
vn -0.2821 0.6757 -0.6811
vn -0.1881 0.2659 0.9455
vn -0.1438 0.6757 0.7230
vn 0.6817 0.2659 -0.6817
vn 0.5213 0.6757 -0.5213
vn -0.1881 0.2659 -0.9455
vn -0.1438 0.6757 -0.7230
vn 0.1930 -0.1476 -0.9700
vn -0.0000 -0.1476 -0.9891
vn 0.3785 -0.1476 -0.9138
vn 0.5495 -0.1476 -0.8224
vn 0.6994 -0.1476 -0.6994
vn 0.8224 -0.1476 -0.5495
vn 0.9138 -0.1476 -0.3785
vn 0.9700 -0.1476 -0.1930
vn 0.9891 -0.1476 -0.0000
vn 0.9700 -0.1476 0.1930
vn 0.9138 -0.1476 0.3785
vn 0.8224 -0.1476 0.5495
vn 0.6994 -0.1476 0.6994
vn 0.5495 -0.1476 0.8224
vn 0.3785 -0.1476 0.9138
vn 0.1930 -0.1476 0.9700
vn -0.0000 -0.1476 0.9891
vn -0.1930 -0.1476 0.9700
vn -0.3785 -0.1476 0.9138
vn -0.5495 -0.1476 0.8224
vn -0.6994 -0.1476 0.6994
vn -0.8224 -0.1476 0.5495
vn -0.9138 -0.1476 0.3785
vn -0.9700 -0.1476 -0.1930
vn -0.9138 -0.1476 -0.3785
vn -0.8224 -0.1476 -0.5495
vn -0.6994 -0.1476 -0.6994
vn -0.5495 -0.1476 -0.8224
vn -0.3785 -0.1476 -0.9138
vn -0.1930 -0.1476 -0.9700
vn -0.9199 -0.0922 -0.3811
vn -0.4351 0.8822 -0.1802
vn -0.3916 0.8822 -0.2616
vn -0.8279 -0.0922 -0.5532
vn 0.9199 -0.0922 0.3811
vn 0.8279 -0.0922 0.5532
vn -0.9766 -0.0922 -0.1943
vn 0.7041 -0.0922 0.7041
vn 0.5532 -0.0922 0.8279
vn 0.3811 -0.0922 0.9199
vn -0.0000 -0.0922 -0.9957
vn 0.1943 -0.0922 -0.9766
vn -0.7041 -0.0922 -0.7041
vn 0.1943 -0.0922 0.9766
vn 0.3811 -0.0922 -0.9199
vn -0.5532 -0.0922 -0.8279
vn -0.0000 -0.0922 0.9957
vn 0.5532 -0.0922 -0.8279
vn -0.3811 -0.0922 -0.9199
vn -0.1943 -0.0922 0.9766
vn 0.7041 -0.0922 -0.7041
vn -0.1943 -0.0922 -0.9766
vn -0.3811 -0.0922 0.9199
vn 0.8279 -0.0922 -0.5532
vn -0.5532 -0.0922 0.8279
vn 0.9199 -0.0922 -0.3811
vn -0.7041 -0.0922 0.7041
vn 0.9766 -0.0922 -0.1943
vn -0.8279 -0.0922 0.5532
vn 0.9957 -0.0922 -0.0000
vn -0.9199 -0.0922 0.3811
vn 0.9766 -0.0922 0.1943
vn -0.0000 0.8822 -0.4709
vn -0.0919 0.8822 -0.4619
vn -0.1802 0.8822 -0.4351
vn -0.2616 0.8822 -0.3916
vn -0.3330 0.8822 -0.3330
vn -0.4619 0.8822 -0.0919
vn -0.4709 0.8822 -0.0000
vn -0.4619 0.8822 0.0919
vn -0.4351 0.8822 0.1802
vn -0.3916 0.8822 0.2616
vn -0.3330 0.8822 0.3330
vn -0.2616 0.8822 0.3916
vn -0.1802 0.8822 0.4351
vn -0.0919 0.8822 0.4619
vn -0.0000 0.8822 0.4709
vn 0.0919 0.8822 0.4619
vn 0.1802 0.8822 0.4351
vn 0.2616 0.8822 0.3916
vn 0.3330 0.8822 0.3330
vn 0.3916 0.8822 0.2616
vn 0.4351 0.8822 0.1802
vn 0.4619 0.8822 0.0919
vn 0.4709 0.8822 -0.0000
vn 0.4619 0.8822 -0.0919
vn 0.4351 0.8822 -0.1802
vn 0.3916 0.8822 -0.2616
vn 0.3330 0.8822 -0.3330
vn 0.2616 0.8822 -0.3916
vn 0.1802 0.8822 -0.4351
vn 0.0919 0.8822 -0.4619
vt 1.000000 0.500000
vt 0.968750 0.500000
vt 0.968750 1.000000
vt 1.000000 1.000000
vt 0.937500 0.500000
vt 0.937500 1.000000
vt 0.906250 0.500000
vt 0.906250 1.000000
vt 0.875000 0.500000
vt 0.875000 1.000000
vt 0.843750 0.500000
vt 0.843750 1.000000
vt 0.812500 0.500000
vt 0.812500 1.000000
vt 0.781250 0.500000
vt 0.781250 1.000000
vt 0.750000 0.500000
vt 0.750000 1.000000
vt 0.718750 0.500000
vt 0.718750 1.000000
vt 0.687500 0.500000
vt 0.687500 1.000000
vt 0.656250 0.500000
vt 0.656250 1.000000
vt 0.625000 0.500000
vt 0.625000 1.000000
vt 0.593750 0.500000
vt 0.593750 1.000000
vt 0.562500 0.500000
vt 0.562500 1.000000
vt 0.531250 0.500000
vt 0.531250 1.000000
vt 0.500000 0.500000
vt 0.500000 1.000000
vt 0.468750 0.500000
vt 0.468750 1.000000
vt 0.437500 0.500000
vt 0.437500 1.000000
vt 0.406250 0.500000
vt 0.406250 1.000000
vt 0.375000 0.500000
vt 0.375000 1.000000
vt 0.343750 0.500000
vt 0.343750 1.000000
vt 0.312500 0.500000
vt 0.312500 1.000000
vt 0.281250 0.500000
vt 0.281250 1.000000
vt 0.250000 0.500000
vt 0.250000 1.000000
vt 0.218750 0.500000
vt 0.218750 1.000000
vt 0.187500 0.500000
vt 0.187500 1.000000
vt 0.156250 0.500000
vt 0.156250 1.000000
vt 0.125000 0.500000
vt 0.125000 1.000000
vt 0.093750 0.500000
vt 0.093750 1.000000
vt 0.062500 0.500000
vt 0.062500 1.000000
vt 0.296822 0.485388
vt 0.341844 0.471731
vt 0.383337 0.449553
vt 0.419706 0.419706
vt 0.449553 0.383337
vt 0.471731 0.341844
vt 0.485388 0.296822
vt 0.490000 0.250000
vt 0.485388 0.203178
vt 0.471731 0.158156
vt 0.449553 0.116663
vt 0.419706 0.080294
vt 0.383337 0.050447
vt 0.341844 0.028269
vt 0.296822 0.014612
vt 0.250000 0.010000
vt 0.203178 0.014612
vt 0.158156 0.028269
vt 0.116663 0.050447
vt 0.080294 0.080294
vt 0.050447 0.116663
vt 0.028269 0.158156
vt 0.014612 0.203178
vt 0.010000 0.250000
vt 0.014612 0.296822
vt 0.028269 0.341844
vt 0.050447 0.383337
vt 0.080294 0.419706
vt 0.116663 0.449553
vt 0.158156 0.471731
vt 0.203178 0.485388
vt 0.250000 0.490000
vt 0.031250 0.500000
vt 0.031250 1.000000
vt 0.000000 0.500000
vt 0.000000 1.000000
vt 0.595214 0.095215
vt 0.567992 0.128386
vt 0.792705 0.464694
vt 0.796822 0.485388
vt 0.750000 0.490000
vt 0.750000 0.468900
vt 0.833769 0.452237
vt 0.841844 0.471731
vt 0.871614 0.432008
vt 0.883337 0.449553
vt 0.904786 0.404785
vt 0.919706 0.419706
vt 0.932008 0.371614
vt 0.949553 0.383337
vt 0.952237 0.333769
vt 0.971731 0.341844
vt 0.964694 0.292705
vt 0.985388 0.296822
vt 0.968900 0.250000
vt 0.990000 0.250000
vt 0.964694 0.207295
vt 0.985388 0.203178
vt 0.952237 0.166231
vt 0.971731 0.158156
vt 0.932009 0.128386
vt 0.949553 0.116663
vt 0.904786 0.095215
vt 0.919706 0.080294
vt 0.871614 0.067992
vt 0.883337 0.050447
vt 0.833769 0.047763
vt 0.841844 0.028269
vt 0.792705 0.035306
vt 0.796822 0.014612
vt 0.750000 0.031100
vt 0.750000 0.010000
vt 0.707295 0.035306
vt 0.703178 0.014612
vt 0.666231 0.047763
vt 0.658156 0.028269
vt 0.628386 0.067992
vt 0.616663 0.050447
vt 0.580294 0.080294
vt 0.550447 0.116663
vt 0.547763 0.166231
vt 0.528269 0.158156
vt 0.535306 0.207295
vt 0.514612 0.203178
vt 0.531100 0.250000
vt 0.510000 0.250000
vt 0.535306 0.292705
vt 0.514612 0.296822
vt 0.547763 0.333769
vt 0.528269 0.341844
vt 0.567992 0.371614
vt 0.550447 0.383337
vt 0.595215 0.404785
vt 0.580294 0.419706
vt 0.628386 0.432008
vt 0.616663 0.449553
vt 0.666231 0.452237
vt 0.658156 0.471731
vt 0.707295 0.464694
vt 0.703178 0.485388
vt 0.696936 0.121893
vt 0.672964 0.134707
vt 0.786914 0.435582
vt 0.750000 0.439218
vt 0.822410 0.424814
vt 0.855124 0.407329
vt 0.883797 0.383797
vt 0.907329 0.355124
vt 0.924814 0.322410
vt 0.935582 0.286914
vt 0.939218 0.250000
vt 0.935582 0.213085
vt 0.924814 0.177590
vt 0.907329 0.144876
vt 0.883797 0.116203
vt 0.855124 0.092671
vt 0.822410 0.075186
vt 0.786914 0.064418
vt 0.750000 0.060782
vt 0.713086 0.064418
vt 0.677590 0.075186
vt 0.644876 0.092671
vt 0.616203 0.116203
vt 0.592671 0.144876
vt 0.575186 0.177590
vt 0.564418 0.213085
vt 0.560782 0.250000
vt 0.564418 0.286915
vt 0.575186 0.322410
vt 0.592671 0.355124
vt 0.616203 0.383797
vt 0.644876 0.407329
vt 0.677590 0.424814
vt 0.713085 0.435582
vt 0.782085 0.411302
vt 0.750000 0.414462
vt 0.812937 0.401944
vt 0.841370 0.386746
vt 0.866293 0.366292
vt 0.886745 0.341370
vt 0.901944 0.312937
vt 0.911302 0.282085
vt 0.914462 0.250000
vt 0.911302 0.217915
vt 0.901943 0.187063
vt 0.886745 0.158629
vt 0.866293 0.133707
vt 0.841370 0.113254
vt 0.812937 0.098056
vt 0.782085 0.088698
vt 0.750000 0.085537
vt 0.717915 0.088698
vt 0.687063 0.098056
vt 0.658629 0.113254
vt 0.633708 0.133707
vt 0.613254 0.158630
vt 0.598056 0.187063
vt 0.588697 0.217915
vt 0.585537 0.250000
vt 0.588698 0.282085
vt 0.598056 0.312937
vt 0.613254 0.341370
vt 0.633707 0.366293
vt 0.658629 0.386746
vt 0.687063 0.401944
vt 0.717915 0.411302
vt 0.777259 0.387043
vt 0.750000 0.389728
vt 0.803471 0.379092
vt 0.827628 0.366180
vt 0.848802 0.348802
vt 0.866179 0.327629
vt 0.879091 0.303471
vt 0.887043 0.277259
vt 0.889728 0.250000
vt 0.887043 0.222740
vt 0.879091 0.196528
vt 0.866179 0.172371
vt 0.848802 0.151197
vt 0.827628 0.133820
vt 0.803471 0.120908
vt 0.777260 0.112957
vt 0.750000 0.110272
vt 0.722740 0.112957
vt 0.696528 0.120908
vt 0.672371 0.133820
vt 0.651197 0.151197
vt 0.633820 0.172371
vt 0.620908 0.196528
vt 0.612957 0.222740
vt 0.610272 0.250000
vt 0.612957 0.277260
vt 0.620908 0.303472
vt 0.633820 0.327629
vt 0.651197 0.348803
vt 0.672371 0.366180
vt 0.696528 0.379092
vt 0.722740 0.387043
vt 0.694151 0.238891
vt 0.693057 0.250000
vt 0.865292 0.327036
vt 0.878106 0.303063
vt 0.651952 0.151952
vt 0.885997 0.277051
vt 0.634707 0.172964
vt 0.888661 0.250000
vt 0.621893 0.196937
vt 0.885997 0.222948
vt 0.614003 0.222948
vt 0.878106 0.196936
vt 0.611338 0.250000
vt 0.865292 0.172964
vt 0.614003 0.277051
vt 0.848048 0.151951
vt 0.621893 0.303063
vt 0.827036 0.134707
vt 0.634707 0.327036
vt 0.803063 0.121893
vt 0.750000 0.388661
vt 0.777051 0.385997
vt 0.651952 0.348048
vt 0.777052 0.114003
vt 0.803063 0.378106
vt 0.672964 0.365293
vt 0.750000 0.111338
vt 0.827036 0.365293
vt 0.696936 0.378106
vt 0.722948 0.114003
vt 0.848048 0.348048
vt 0.722948 0.385997
vt 0.761109 0.305848
vt 0.750000 0.306943
vt 0.771791 0.302608
vt 0.781635 0.297346
vt 0.790264 0.290264
vt 0.797346 0.281636
vt 0.802608 0.271791
vt 0.805848 0.261109
vt 0.806942 0.250000
vt 0.805848 0.238891
vt 0.802608 0.228209
vt 0.797346 0.218364
vt 0.790264 0.209735
vt 0.781636 0.202654
vt 0.771791 0.197392
vt 0.761109 0.194151
vt 0.750000 0.193057
vt 0.738891 0.194151
vt 0.728209 0.197392
vt 0.718364 0.202654
vt 0.709735 0.209735
vt 0.702654 0.218364
vt 0.697392 0.228209
vt 0.694151 0.261109
vt 0.697392 0.271791
vt 0.702654 0.281636
vt 0.709735 0.290265
vt 0.718364 0.297346
vt 0.728209 0.302608
vt 0.738891 0.305849
s 1
f 65/1/1 66/2/2 4/3/3 2/4/4
f 66/2/2 67/5/5 6/6/6 4/3/3
f 67/5/5 68/7/7 8/8/8 6/6/6
f 68/7/7 69/9/9 10/10/10 8/8/8
f 69/9/9 70/11/11 12/12/12 10/10/10
f 70/11/11 71/13/13 14/14/14 12/12/12
f 71/13/13 72/15/15 16/16/16 14/14/14
f 72/15/15 73/17/17 18/18/18 16/16/16
f 73/17/17 74/19/19 20/20/20 18/18/18
f 74/19/19 75/21/21 22/22/22 20/20/20
f 75/21/21 76/23/23 24/24/24 22/22/22
f 76/23/23 77/25/25 26/26/26 24/24/24
f 77/25/25 78/27/27 28/28/28 26/26/26
f 78/27/27 79/29/29 30/30/30 28/28/28
f 79/29/29 80/31/31 32/32/32 30/30/30
f 80/31/31 81/33/33 34/34/34 32/32/32
f 81/33/33 82/35/35 36/36/36 34/34/34
f 82/35/35 83/37/37 38/38/38 36/36/36
f 83/37/37 84/39/39 40/40/40 38/38/38
f 84/39/39 85/41/41 42/42/42 40/40/40
f 85/41/41 86/43/43 44/44/44 42/42/42
f 86/43/43 87/45/45 46/46/46 44/44/44
f 87/45/45 88/47/47 48/48/48 46/46/46
f 88/47/47 89/49/49 50/50/50 48/48/48
f 89/49/49 90/51/51 52/52/52 50/50/50
f 90/51/51 91/53/53 54/54/54 52/52/52
f 91/53/53 92/55/55 56/56/56 54/54/54
f 92/55/55 93/57/57 58/58/58 56/56/56
f 93/57/57 94/59/59 60/60/60 58/58/58
f 94/59/59 95/61/61 62/62/62 60/60/60
s 0
f 4/63/63 6/64/63 8/65/63 10/66/63 12/67/63 14/68/63 16/69/63 18/70/63 20/71/63 22/72/63 24/73/63 26/74/63 28/75/63 30/76/63 32/77/63 34/78/63 36/79/63 38/80/63 40/81/63 42/82/63 44/83/63 46/84/63 48/85/63 50/86/63 52/87/63 54/88/63 56/89/63 58/90/63 60/91/63 62/92/63 64/93/63 2/94/63
s 1
f 95/61/61 96/95/64 64/96/65 62/62/62
f 96/95/64 65/97/1 2/98/4 64/96/65
f 41/99/66 149/99/67 150/100/68 43/100/69
f 3/101/70 66/102/2 65/103/1 1/104/71
f 5/105/72 67/106/5 66/102/2 3/101/70
f 7/107/73 68/108/7 67/106/5 5/105/72
f 9/109/74 69/110/9 68/108/7 7/107/73
f 11/111/75 70/112/11 69/110/9 9/109/74
f 13/113/76 71/114/13 70/112/11 11/111/75
f 15/115/77 72/116/15 71/114/13 13/113/76
f 17/117/78 73/118/17 72/116/15 15/115/77
f 19/119/79 74/120/19 73/118/17 17/117/78
f 21/121/80 75/122/21 74/120/19 19/119/79
f 23/123/81 76/124/23 75/122/21 21/121/80
f 25/125/82 77/126/25 76/124/23 23/123/81
f 27/127/83 78/128/27 77/126/25 25/125/82
f 29/129/84 79/130/29 78/128/27 27/127/83
f 31/131/85 80/132/31 79/130/29 29/129/84
f 33/133/86 81/134/33 80/132/31 31/131/85
f 35/135/87 82/136/35 81/134/33 33/133/86
f 37/137/88 83/138/37 82/136/35 35/135/87
f 39/139/89 84/140/39 83/138/37 37/137/88
f 41/99/66 85/141/41 84/140/39 39/139/89
f 43/100/69 86/142/43 85/141/41 41/99/66
f 45/143/90 87/144/45 86/142/43 43/100/69
f 47/145/91 88/146/47 87/144/45 45/143/90
f 49/147/92 89/148/49 88/146/47 47/145/91
f 51/149/93 90/150/51 89/148/49 49/147/92
f 53/151/94 91/152/53 90/150/51 51/149/93
f 55/153/95 92/154/55 91/152/53 53/151/94
f 57/155/96 93/156/57 92/154/55 55/153/95
f 59/157/97 94/158/59 93/156/57 57/155/96
f 61/159/98 95/160/61 94/158/59 59/157/97
f 63/161/99 96/162/64 95/160/61 61/159/98
f 1/104/71 65/103/1 96/162/64 63/161/99
f 115/163/100 307/163/101 308/164/102 116/164/103
f 15/115/77 136/115/104 137/117/105 17/117/78
f 43/100/69 150/100/68 151/143/106 45/143/90
f 17/117/78 137/117/105 138/119/107 19/119/79
f 45/143/90 151/143/106 152/145/108 47/145/91
f 19/119/79 138/119/107 139/121/109 21/121/80
f 47/145/91 152/145/108 153/147/110 49/147/92
f 21/121/80 139/121/109 140/123/111 23/123/81
f 49/147/92 153/147/110 154/149/112 51/149/93
f 23/123/81 140/123/111 141/125/113 25/125/82
f 51/149/93 154/149/112 155/151/114 53/151/94
f 25/125/82 141/125/113 142/127/115 27/127/83
f 53/151/94 155/151/114 156/153/116 55/153/95
f 27/127/83 142/127/115 143/129/117 29/129/84
f 1/104/71 129/104/118 130/101/119 3/101/70
f 55/153/95 156/153/116 157/155/120 57/155/96
f 29/129/84 143/129/117 144/131/121 31/131/85
f 3/101/70 130/101/119 131/105/122 5/105/72
f 57/155/96 157/155/120 158/157/123 59/157/97
f 31/131/85 144/131/121 145/133/124 33/133/86
f 5/105/72 131/105/122 132/107/125 7/107/73
f 59/157/97 158/157/123 159/159/126 61/159/98
f 33/133/86 145/133/124 146/135/127 35/135/87
f 7/107/73 132/107/125 133/109/128 9/109/74
f 61/159/98 159/159/126 160/161/129 63/161/99
f 35/135/87 146/135/127 147/137/130 37/137/88
f 9/109/74 133/109/128 134/111/131 11/111/75
f 63/161/99 160/161/129 129/104/118 1/104/71
f 37/137/88 147/137/130 148/139/132 39/139/89
f 11/111/75 134/111/131 135/113/133 13/113/76
f 39/139/89 148/139/132 149/99/67 41/99/66
f 13/113/76 135/113/133 136/115/104 15/115/77
f 162/165/134 130/101/119 129/104/118 161/166/135
f 163/167/136 131/105/122 130/101/119 162/165/134
f 164/168/137 132/107/125 131/105/122 163/167/136
f 165/169/138 133/109/128 132/107/125 164/168/137
f 166/170/139 134/111/131 133/109/128 165/169/138
f 167/171/140 135/113/133 134/111/131 166/170/139
f 168/172/141 136/115/104 135/113/133 167/171/140
f 169/173/142 137/117/105 136/115/104 168/172/141
f 170/174/143 138/119/107 137/117/105 169/173/142
f 171/175/144 139/121/109 138/119/107 170/174/143
f 172/176/145 140/123/111 139/121/109 171/175/144
f 173/177/146 141/125/113 140/123/111 172/176/145
f 174/178/147 142/127/115 141/125/113 173/177/146
f 175/179/148 143/129/117 142/127/115 174/178/147
f 176/180/149 144/131/121 143/129/117 175/179/148
f 177/181/150 145/133/124 144/131/121 176/180/149
f 178/182/151 146/135/127 145/133/124 177/181/150
f 179/183/152 147/137/130 146/135/127 178/182/151
f 180/184/153 148/139/132 147/137/130 179/183/152
f 181/185/154 149/99/67 148/139/132 180/184/153
f 182/186/155 150/100/68 149/99/67 181/185/154
f 183/187/156 151/143/106 150/100/68 182/186/155
f 184/188/157 152/145/108 151/143/106 183/187/156
f 185/189/158 153/147/110 152/145/108 184/188/157
f 186/190/159 154/149/112 153/147/110 185/189/158
f 187/191/160 155/151/114 154/149/112 186/190/159
f 188/192/161 156/153/116 155/151/114 187/191/160
f 189/193/162 157/155/120 156/153/116 188/192/161
f 190/194/163 158/157/123 157/155/120 189/193/162
f 191/195/164 159/159/126 158/157/123 190/194/163
f 192/196/165 160/161/129 159/159/126 191/195/164
f 161/166/135 129/104/118 160/161/129 192/196/165
s 0
f 194/197/166 162/165/166 161/166/166 193/198/166
f 195/199/167 163/167/167 162/165/167 194/197/167
f 196/200/168 164/168/168 163/167/168 195/199/168
f 197/201/169 165/169/169 164/168/169 196/200/169
f 198/202/170 166/170/170 165/169/170 197/201/170
f 199/203/171 167/171/171 166/170/171 198/202/171
f 200/204/172 168/172/172 167/171/172 199/203/172
f 201/205/173 169/173/173 168/172/173 200/204/173
f 202/206/174 170/174/174 169/173/174 201/205/174
f 203/207/175 171/175/175 170/174/175 202/206/175
f 204/208/176 172/176/176 171/175/176 203/207/176
f 205/209/177 173/177/177 172/176/177 204/208/177
f 206/210/178 174/178/178 173/177/178 205/209/178
f 207/211/179 175/179/179 174/178/179 206/210/179
f 208/212/180 176/180/180 175/179/180 207/211/180
f 209/213/181 177/181/181 176/180/181 208/212/181
f 210/214/182 178/182/182 177/181/182 209/213/182
f 211/215/183 179/183/183 178/182/183 210/214/183
f 212/216/184 180/184/184 179/183/184 211/215/184
f 213/217/185 181/185/185 180/184/185 212/216/185
f 214/218/186 182/186/186 181/185/186 213/217/186
f 215/219/187 183/187/187 182/186/187 214/218/187
f 216/220/188 184/188/188 183/187/188 215/219/188
f 217/221/189 185/189/189 184/188/189 216/220/189
f 218/222/190 186/190/190 185/189/190 217/221/190
f 219/223/191 187/191/191 186/190/191 218/222/191
f 220/224/192 188/192/192 187/191/192 219/223/192
f 221/225/193 189/193/193 188/192/193 220/224/193
f 222/226/194 190/194/194 189/193/194 221/225/194
f 223/227/195 191/195/195 190/194/195 222/226/195
f 224/228/196 192/196/196 191/195/196 223/227/196
f 193/198/197 161/166/197 192/196/197 224/228/197
s 1
f 257/229/198 194/197/199 193/198/200 258/230/201
f 259/231/202 195/199/203 194/197/199 257/229/198
f 260/232/204 196/200/205 195/199/203 259/231/202
f 261/233/206 197/201/207 196/200/205 260/232/204
f 262/234/208 198/202/209 197/201/207 261/233/206
f 263/235/210 199/203/211 198/202/209 262/234/208
f 264/236/212 200/204/213 199/203/211 263/235/210
f 265/237/214 201/205/215 200/204/213 264/236/212
f 266/238/216 202/206/217 201/205/215 265/237/214
f 267/239/218 203/207/219 202/206/217 266/238/216
f 268/240/220 204/208/221 203/207/219 267/239/218
f 269/241/222 205/209/223 204/208/221 268/240/220
f 270/242/224 206/210/225 205/209/223 269/241/222
f 271/243/226 207/211/227 206/210/225 270/242/224
f 272/244/228 208/212/229 207/211/227 271/243/226
f 273/245/230 209/213/231 208/212/229 272/244/228
f 274/246/232 210/214/233 209/213/231 273/245/230
f 275/247/234 211/215/235 210/214/233 274/246/232
f 276/248/236 212/216/237 211/215/235 275/247/234
f 277/249/238 213/217/239 212/216/237 276/248/236
f 278/250/240 214/218/241 213/217/239 277/249/238
f 279/251/242 215/219/243 214/218/241 278/250/240
f 280/252/244 216/220/245 215/219/243 279/251/242
f 281/253/246 217/221/247 216/220/245 280/252/244
f 282/254/248 218/222/249 217/221/247 281/253/246
f 283/255/250 219/223/251 218/222/249 282/254/248
f 284/256/252 220/224/253 219/223/251 283/255/250
f 285/257/254 221/225/255 220/224/253 284/256/252
f 286/258/256 222/226/257 221/225/255 285/257/254
f 287/259/258 223/227/259 222/226/257 286/258/256
f 288/260/260 224/228/261 223/227/259 287/259/258
f 258/230/201 193/198/200 224/228/261 288/260/260
f 248/261/262 344/261/263 345/262/264 249/262/265
f 102/263/266 294/263/267 295/264/268 103/264/269
f 116/164/103 308/164/102 309/265/270 117/265/271
f 103/264/269 295/264/268 296/266/272 104/266/273
f 117/265/271 309/265/270 310/267/274 118/267/275
f 104/266/273 296/266/272 297/268/276 105/268/277
f 118/267/275 310/267/274 311/269/278 119/269/279
f 105/268/277 297/268/276 298/270/280 106/270/281
f 119/269/279 311/269/278 312/271/282 120/271/283
f 106/270/281 298/270/280 299/272/284 107/272/285
f 120/271/283 312/271/282 313/273/286 121/273/287
f 107/272/285 299/272/284 300/274/288 108/274/289
f 121/273/287 313/273/286 314/275/290 122/275/291
f 108/274/289 300/274/288 301/276/292 109/276/293
f 122/275/291 314/275/290 315/277/294 123/277/295
f 109/276/293 301/276/292 302/278/296 110/278/297
f 123/277/295 315/277/294 316/279/298 124/279/299
f 110/278/297 302/278/296 303/280/300 111/280/301
f 97/281/302 289/281/303 290/282/304 98/282/305
f 124/279/299 316/279/298 317/283/306 125/283/307
f 111/280/301 303/280/300 304/284/308 112/284/309
f 98/282/305 290/282/304 291/285/310 99/285/311
f 125/283/307 317/283/306 318/286/312 126/286/313
f 112/284/309 304/284/308 305/287/314 113/287/315
f 99/285/311 291/285/310 292/288/316 100/288/317
f 126/286/313 318/286/312 319/289/318 127/289/319
f 113/287/315 305/287/314 306/290/320 114/290/321
f 100/288/317 292/288/316 293/291/322 101/291/323
f 127/289/319 319/289/318 320/292/324 128/292/325
f 114/290/321 306/290/320 307/163/101 115/163/100
f 101/291/323 293/291/322 294/263/267 102/263/266
f 128/292/325 320/292/324 289/281/303 97/281/302
f 97/281/302 258/230/201 288/260/260 128/292/325
f 128/292/325 288/260/260 287/259/258 127/289/319
f 127/289/319 287/259/258 286/258/256 126/286/313
f 126/286/313 286/258/256 285/257/254 125/283/307
f 125/283/307 285/257/254 284/256/252 124/279/299
f 124/279/299 284/256/252 283/255/250 123/277/295
f 123/277/295 283/255/250 282/254/248 122/275/291
f 122/275/291 282/254/248 281/253/246 121/273/287
f 121/273/287 281/253/246 280/252/244 120/271/283
f 120/271/283 280/252/244 279/251/242 119/269/279
f 119/269/279 279/251/242 278/250/240 118/267/275
f 118/267/275 278/250/240 277/249/238 117/265/271
f 117/265/271 277/249/238 276/248/236 116/164/103
f 116/164/103 276/248/236 275/247/234 115/163/100
f 115/163/100 275/247/234 274/246/232 114/290/321
f 114/290/321 274/246/232 273/245/230 113/287/315
f 113/287/315 273/245/230 272/244/228 112/284/309
f 112/284/309 272/244/228 271/243/226 111/280/301
f 111/280/301 271/243/226 270/242/224 110/278/297
f 110/278/297 270/242/224 269/241/222 109/276/293
f 109/276/293 269/241/222 268/240/220 108/274/289
f 108/274/289 268/240/220 267/239/218 107/272/285
f 107/272/285 267/239/218 266/238/216 106/270/281
f 106/270/281 266/238/216 265/237/214 105/268/277
f 105/268/277 265/237/214 264/236/212 104/266/273
f 104/266/273 264/236/212 263/235/210 103/264/269
f 103/264/269 263/235/210 262/234/208 102/263/266
f 102/263/266 262/234/208 261/233/206 101/291/323
f 101/291/323 261/233/206 260/232/204 100/288/317
f 100/288/317 260/232/204 259/231/202 99/285/311
f 99/285/311 259/231/202 257/229/198 98/282/305
f 98/282/305 257/229/198 258/230/201 97/281/302
f 226/293/326 290/282/304 289/281/303 225/294/327
f 227/295/328 291/285/310 290/282/304 226/293/326
f 228/296/329 292/288/316 291/285/310 227/295/328
f 229/297/330 293/291/322 292/288/316 228/296/329
f 230/298/331 294/263/267 293/291/322 229/297/330
f 231/299/332 295/264/268 294/263/267 230/298/331
f 232/300/333 296/266/272 295/264/268 231/299/332
f 233/301/334 297/268/276 296/266/272 232/300/333
f 234/302/335 298/270/280 297/268/276 233/301/334
f 235/303/336 299/272/284 298/270/280 234/302/335
f 236/304/337 300/274/288 299/272/284 235/303/336
f 237/305/338 301/276/292 300/274/288 236/304/337
f 238/306/339 302/278/296 301/276/292 237/305/338
f 239/307/340 303/280/300 302/278/296 238/306/339
f 240/308/341 304/284/308 303/280/300 239/307/340
f 241/309/342 305/287/314 304/284/308 240/308/341
f 242/310/343 306/290/320 305/287/314 241/309/342
f 243/311/344 307/163/101 306/290/320 242/310/343
f 244/312/345 308/164/102 307/163/101 243/311/344
f 245/313/346 309/265/270 308/164/102 244/312/345
f 246/314/347 310/267/274 309/265/270 245/313/346
f 247/315/348 311/269/278 310/267/274 246/314/347
f 248/261/262 312/271/282 311/269/278 247/315/348
f 249/262/265 313/273/286 312/271/282 248/261/262
f 250/316/349 314/275/290 313/273/286 249/262/265
f 251/317/350 315/277/294 314/275/290 250/316/349
f 252/318/351 316/279/298 315/277/294 251/317/350
f 253/319/352 317/283/306 316/279/298 252/318/351
f 254/320/353 318/286/312 317/283/306 253/319/352
f 255/321/354 319/289/318 318/286/312 254/320/353
f 256/322/355 320/292/324 319/289/318 255/321/354
f 225/294/327 289/281/303 320/292/324 256/322/355
f 347/317/356 379/317/357 380/318/358 348/318/359
f 235/303/336 331/303/360 332/304/361 236/304/337
f 249/262/265 345/262/264 346/316/362 250/316/349
f 236/304/337 332/304/361 333/305/363 237/305/338
f 250/316/349 346/316/362 347/317/356 251/317/350
f 237/305/338 333/305/363 334/306/364 238/306/339
f 251/317/350 347/317/356 348/318/359 252/318/351
f 238/306/339 334/306/364 335/307/365 239/307/340
f 225/294/327 321/294/366 322/293/367 226/293/326
f 252/318/351 348/318/359 349/319/368 253/319/352
f 239/307/340 335/307/365 336/308/369 240/308/341
f 226/293/326 322/293/367 323/295/370 227/295/328
f 253/319/352 349/319/368 350/320/371 254/320/353
f 240/308/341 336/308/369 337/309/372 241/309/342
f 227/295/328 323/295/370 324/296/373 228/296/329
f 254/320/353 350/320/371 351/321/374 255/321/354
f 241/309/342 337/309/372 338/310/375 242/310/343
f 228/296/329 324/296/373 325/297/376 229/297/330
f 255/321/354 351/321/374 352/322/377 256/322/355
f 242/310/343 338/310/375 339/311/378 243/311/344
f 229/297/330 325/297/376 326/298/379 230/298/331
f 256/322/355 352/322/377 321/294/366 225/294/327
f 243/311/344 339/311/378 340/312/380 244/312/345
f 230/298/331 326/298/379 327/299/381 231/299/332
f 244/312/345 340/312/380 341/313/382 245/313/346
f 231/299/332 327/299/381 328/300/383 232/300/333
f 245/313/346 341/313/382 342/314/384 246/314/347
f 232/300/333 328/300/383 329/301/385 233/301/334
f 246/314/347 342/314/384 343/315/386 247/315/348
f 233/301/334 329/301/385 330/302/387 234/302/335
f 247/315/348 343/315/386 344/261/263 248/261/262
f 234/302/335 330/302/387 331/303/360 235/303/336
f 353/294/388 384/322/389 383/321/390 382/320/391 381/319/392 380/318/358 379/317/357 378/316/393 377/262/394 376/261/395 375/315/396 374/314/397 373/313/398 372/312/399 371/311/400 370/310/401 369/309/402 368/308/403 367/307/404 366/306/405 365/305/406 364/304/407 363/303/408 362/302/409 361/301/410 360/300/411 359/299/412 358/298/413 357/297/414 356/296/415 355/295/416 354/293/417
f 334/306/364 366/306/405 367/307/404 335/307/365
f 321/294/366 353/294/388 354/293/417 322/293/367
f 348/318/359 380/318/358 381/319/392 349/319/368
f 335/307/365 367/307/404 368/308/403 336/308/369
f 322/293/367 354/293/417 355/295/416 323/295/370
f 349/319/368 381/319/392 382/320/391 350/320/371
f 336/308/369 368/308/403 369/309/402 337/309/372
f 323/295/370 355/295/416 356/296/415 324/296/373
f 350/320/371 382/320/391 383/321/390 351/321/374
f 337/309/372 369/309/402 370/310/401 338/310/375
f 324/296/373 356/296/415 357/297/414 325/297/376
f 351/321/374 383/321/390 384/322/389 352/322/377
f 338/310/375 370/310/401 371/311/400 339/311/378
f 325/297/376 357/297/414 358/298/413 326/298/379
f 352/322/377 384/322/389 353/294/388 321/294/366
f 339/311/378 371/311/400 372/312/399 340/312/380
f 326/298/379 358/298/413 359/299/412 327/299/381
f 340/312/380 372/312/399 373/313/398 341/313/382
f 327/299/381 359/299/412 360/300/411 328/300/383
f 341/313/382 373/313/398 374/314/397 342/314/384
f 328/300/383 360/300/411 361/301/410 329/301/385
f 342/314/384 374/314/397 375/315/396 343/315/386
f 329/301/385 361/301/410 362/302/409 330/302/387
f 343/315/386 375/315/396 376/261/395 344/261/263
f 330/302/387 362/302/409 363/303/408 331/303/360
f 344/261/263 376/261/395 377/262/394 345/262/264
f 331/303/360 363/303/408 364/304/407 332/304/361
f 345/262/264 377/262/394 378/316/393 346/316/362
f 332/304/361 364/304/407 365/305/406 333/305/363
f 346/316/362 378/316/393 379/317/357 347/317/356
f 333/305/363 365/305/406 366/306/405 334/306/364
o Cube
v 1.737967 0.008523 0.448961
v 1.858693 0.218614 0.328236
v 4.504076 0.008523 0.945909
v 4.325446 0.218614 0.825183
v 1.858693 0.218614 0.825183
v 1.737967 0.008523 0.945909
v 1.737967 0.008523 0.000000
v 5.144405 0.008523 0.000000
v 4.900468 0.218614 0.000000
v 1.540257 0.008523 0.000000
v 1.540257 0.008523 0.448961
v 1.660983 0.218614 0.328236
v 1.660983 0.218614 0.000000
v 1.737967 0.008523 -0.448961
v 1.858693 0.218614 -0.328236
v 4.504076 0.008523 -0.945909
v 4.325446 0.218614 -0.825183
v 1.858693 0.218614 -0.825183
v 1.737967 0.008523 -0.945909
v 1.540257 0.008523 -0.448961
v 1.660983 0.218614 -0.328236
v 1.737967 0.008523 0.224481
v 1.540257 0.008523 0.224481
v 1.660983 0.218614 0.224481
v 4.162688 0.218614 0.420200
v 4.314000 0.008523 0.472954
v 1.737967 0.008523 -0.224481
v 1.540257 0.008523 -0.224481
v 1.660983 0.218614 -0.224481
v 4.162688 0.218614 -0.420200
v 4.314000 0.008523 -0.472954
v 1.737967 0.218614 0.448961
v 1.737967 0.218614 0.945909
v 4.504076 0.218614 0.945909
v 1.540257 0.218614 0.224481
v 1.540257 0.218614 0.000000
v 1.540257 0.218614 0.448961
v 4.314000 0.218614 0.472954
v 1.737967 0.218614 -0.448961
v 1.737967 0.218614 -0.945909
v 4.504076 0.218614 -0.945909
v 1.540257 0.218614 -0.224481
v 1.540257 0.218614 -0.448961
v 4.314000 0.218614 -0.472954
v 5.144405 0.218614 0.000000
v 1.660983 0.097672 0.224481
v 4.162688 0.097672 0.420200
v 4.162688 0.097672 -0.420200
v 1.660983 0.097672 -0.224481
v 1.858693 0.097672 0.328236
v 1.858693 0.097672 0.825183
v 4.325446 0.097672 0.825183
v 1.660983 0.097672 0.000000
v 1.660983 0.097672 0.328236
v 1.858693 0.097672 -0.328236
v 1.858693 0.097672 -0.825183
v 4.325446 0.097672 -0.825183
v 1.660983 0.097672 -0.328236
v 4.900468 0.097672 0.000000
vn -0.0000 -1.0000 -0.0000
vn -1.0000 -0.0000 -0.0000
vn 0.9279 -0.0000 -0.3729
vn -0.0000 -0.0000 1.0000
vn -0.0000 -0.0000 -1.0000
vn 0.9279 -0.0000 0.3729
vn 1.0000 -0.0000 -0.0000
vn 0.4949 -0.0000 0.8689
vn -0.9279 -0.0000 -0.3729
vn 0.4949 -0.0000 -0.8689
vn -0.0000 1.0000 -0.0000
vn -0.4949 -0.0000 -0.8689
vn -0.9279 -0.0000 0.3729
vn -0.4949 -0.0000 0.8689
vt 0.125000 0.750000
vt 0.375000 0.750000
vt 0.375000 0.064062
vt 0.625000 0.064062
vt 0.625000 0.128125
vt 0.375000 0.128125
vt 0.375000 0.685938
vt 0.625000 0.685938
vt 0.625000 0.750000
vt 0.125000 0.685938
vt 0.625000 0.000000
vt 0.375000 0.000000
vt 0.625000 1.000000
vt 0.375000 1.000000
vt 0.000000 0.000000
vt 0.375000 0.685938
vt 0.125000 0.685937
vt 0.863870 0.683544
vt 0.866341 0.709911
vt 0.864262 0.661938
vt 0.125000 0.621875
vt 0.375000 0.621875
vt 0.625000 0.621875
vt 0.639810 0.684898
vt 0.636853 0.734044
vt 0.862513 0.743907
vt 0.849102 0.699128
vt 0.875000 0.750000
vt 0.875000 0.621875
vt 0.875000 0.685938
vt 0.639810 0.684898
vt 0.849102 0.699128
vt 0.862513 0.743907
vt 0.863870 0.683544
vt 0.866341 0.709911
vt 0.626786 0.639125
s 0
f 385/323/418 387/324/418 390/323/418
f 407/325/419 419/326/419 420/327/419 394/328/419
f 410/329/420 422/330/420 418/331/420 387/324/420
f 406/332/418 410/329/418 387/324/418 385/323/418
f 416/333/419 385/334/419 390/334/419 417/333/419
f 387/324/421 418/331/421 417/335/421 390/336/421
f 406/332/418 385/323/418 395/323/418 407/332/418
f 385/334/421 416/333/421 421/333/421 395/334/421
f 391/337/422 394/337/422 420/337/422
f 398/323/418 403/323/418 400/324/418
f 412/325/419 394/328/419 420/327/419 426/326/419
f 415/338/423 400/324/423 425/331/423 428/330/423
f 411/339/418 398/323/418 400/324/418 415/338/418
f 423/333/419 424/333/419 403/334/419 398/334/419
f 400/324/422 403/336/422 424/335/422 425/331/422
f 411/339/418 412/332/418 404/323/418 398/323/418
f 398/334/422 404/334/422 427/333/422 423/333/422
f 408/340/424 396/341/424 438/341/424 430/340/424
f 397/342/424 408/340/424 430/340/424 437/342/424
f 391/343/418 406/332/418 407/332/418 394/343/418
f 391/343/418 392/344/418 410/329/418 406/332/418
f 392/344/425 429/345/425 422/330/425 410/329/425
f 395/334/419 421/333/419 419/326/419 407/325/419
f 414/346/426 401/347/426 441/347/426 432/346/426
f 391/343/418 394/343/418 412/332/418 411/339/418
f 391/343/418 411/339/418 415/338/418 392/344/418
f 392/344/427 415/338/427 428/330/427 429/345/427
f 404/334/419 412/325/419 426/326/419 427/333/419
f 389/348/428 386/349/428 416/350/428 417/350/428
f 388/347/428 389/348/428 417/350/428 418/331/428
f 408/340/428 397/342/428 420/351/428 419/352/428
f 386/349/428 396/341/428 421/350/428 416/350/428
f 409/353/428 388/347/428 418/331/428 422/330/428
f 399/354/428 402/355/428 424/350/428 423/350/428
f 402/355/428 401/347/428 425/331/428 424/350/428
f 397/342/428 413/356/428 426/352/428 420/351/428
f 405/357/428 399/354/428 423/350/428 427/350/428
f 401/347/428 414/346/428 428/330/428 425/331/428
f 396/341/428 408/340/428 419/352/428 421/350/428
f 393/358/428 409/353/428 422/330/428 429/345/428
f 413/356/428 405/357/428 427/350/428 426/352/428
f 414/346/428 393/358/428 429/345/428 428/330/428
f 431/353/428 430/340/428 438/341/428 434/349/428 435/348/428 436/347/428
f 432/346/428 441/347/428 440/355/428 439/354/428 442/357/428 433/356/428
f 443/358/428 432/346/428 433/356/428 437/342/428 430/340/428 431/353/428
f 396/341/422 386/349/422 434/349/422 438/341/422
f 409/353/429 393/358/429 443/358/429 431/353/429
f 388/347/430 409/353/430 431/353/430 436/347/430
f 405/357/424 413/356/424 433/356/424 442/357/424
f 402/355/424 399/354/424 439/354/424 440/355/424
f 393/358/431 414/346/431 432/346/431 443/358/431
f 401/347/421 402/355/421 440/355/421 441/347/421
f 413/356/424 397/342/424 437/342/424 433/356/424
f 386/349/424 389/348/424 435/348/424 434/349/424
f 399/354/421 405/357/421 442/357/421 439/354/421
f 389/348/422 388/347/422 436/347/422 435/348/422
